<?xml version="1.0" encoding="UTF-8" standalone="no"?>
<!DOCTYPE svg PUBLIC "-//W3C//DTD SVG 1.1//EN" "http://www.w3.org/Graphics/SVG/1.1/DTD/svg11.dtd">
<svg width="100%" height="100%" viewBox="0 0 200 200" version="1.1" xmlns="http://www.w3.org/2000/svg" xmlns:xlink="http://www.w3.org/1999/xlink" xml:space="preserve" xmlns:serif="http://www.serif.com/" style="fill-rule:evenodd;clip-rule:evenodd;stroke-linejoin:round;stroke-miterlimit:2;">
    <g id="g4522" transform="matrix(1.36364,0,0,1.36364,12.7273,-110.455)">
        <path id="circle846" d="M64,81C33.828,81 9,105.828 9,136C9,166.172 33.828,191 64,191C94.172,191 119,166.172 119,136C119,105.828 94.172,81 64,81ZM64,85C91.978,85 115,108.022 115,136L115,136C115,163.978 91.978,187 64,187L64,187C36.022,187 13,163.978 13,136L13,136C13,108.022 36.022,85 64,85L64,85Z" style="fill:white;"/>
        <g transform="matrix(0.0484396,0,0,0.0484396,16.9381,105.131)">
            <path d="M0,508.24C42.92,512.48 85.36,520.83 127.18,531.24C267.81,566.24 399.07,634.41 513,723.41C604.38,794.41 687.78,875.47 763.26,963.14C823.41,1032.14 876.85,1106.63 931.09,1180.3C933.78,1184.09 936.23,1188 938.7,1191.98C833.05,1187.09 727.61,1173.84 624.57,1149.71C541.79,1130.43 460.1,1103.86 385.19,1063.19C333.57,1035.81 288.11,997.35 251.19,952.19C239.92,938.97 230.05,924.65 219.63,910.78C147.96,811.61 89.29,703.64 39.19,592.19C26.46,564.03 12.52,536.46 0,508.24ZM1929.05,510C1933.71,509.275 1938.41,508.791 1943.12,508.55C1920.82,556.26 1897.87,603.66 1875.12,651.17C1820.22,767.49 1752.97,878.5 1670.02,977.04C1641.11,1011.68 1602.65,1036.44 1564.09,1059.04C1507.38,1091.31 1445.97,1114.56 1383.33,1132.43C1275.16,1163.71 1163.26,1180.61 1051.11,1188.88C1035.01,1189.79 1018.95,1191.62 1002.8,1191.14C1114.39,1030.97 1240.11,878.83 1390.8,753.76C1468.36,689.76 1552.93,633.76 1644.11,591.03C1712.35,559.522 1784.12,536.31 1857.88,521.89C1881.46,517.19 1905.31,513.88 1929.05,510ZM1335.1,209.11C1343.1,201.94 1351.03,194.42 1360.49,189.11C1383.68,303.76 1391.56,421.45 1385.09,538.2C1381.09,605.46 1371.29,672.5 1353.68,737.59C1351.62,744.54 1350.54,752.14 1346.06,758.11C1341.06,765.91 1333.9,771.98 1326.91,777.91C1304.51,796.77 1284.44,818.13 1262.91,837.91C1234.15,866.85 1206.72,897.07 1179.13,927.13C1150.73,958.62 1124.21,991.72 1098.13,1025.13C1068.85,1062.27 1040.34,1099.99 1011.32,1137.32C1001.9,1148.71 995.78,1163.09 983.38,1171.75C980.57,1138.4 982.69,1104.88 983.56,1071.5C991.08,880.05 1032.4,688.5 1115.26,515.21C1163.57,414.79 1226,320.72 1302.98,239.97C1313.19,229.19 1324.29,219.29 1335.1,209.11ZM581.55,188.75C599.18,200.75 614.32,216 629.45,230.93C662.9,263.45 692.87,299.44 720.19,337.19C792.4,435.82 847.76,546.43 885.91,662.47C919.83,763.98 940.84,869.56 951.54,975.98C957.48,1036.19 959.85,1096.7 960.3,1157.18C960.467,1162.06 959.721,1166.92 958.1,1171.52C946.49,1161.79 938.55,1148.81 929.34,1137.01C898.79,1096.55 868.76,1055.7 837.77,1015.57C806.46,974.03 770.67,936.19 735.19,898.19C715.34,877.04 695.57,855.82 675.06,835.32C656.5,814.55 635.37,796.32 614.86,777.53C607.79,770.63 599.13,765.08 593.99,756.44C589.85,746.72 588.15,736.24 585.3,726.13C566.19,649.7 556.84,570.93 555.19,492.19C553.212,412.702 557.989,333.189 569.47,254.51C573,232.5 576.56,210.48 581.55,188.75ZM975.48,0C998.48,24.68 1017.35,53 1034.1,82.25C1085.39,171.72 1115.72,272.12 1129.37,374.05C1131.37,389.29 1133.16,404.56 1134.73,419.86C1135.23,424.53 1132.73,428.76 1130.81,432.86C1109.12,471.51 1088.51,510.86 1072.04,552.1C1045.19,619.38 1019.87,687.55 1003.19,758.19C989.51,812.37 982.19,867.84 974.07,923.06C973.34,927.77 972.25,932.42 971.07,937.06C963.07,884.19 954.51,831.35 943.35,779.06C933.389,732.536 920.412,686.709 904.5,641.87C893.26,611.01 880.79,580.61 868.01,550.35C857.85,526.73 848.57,502.67 836.23,480.07C833.1,473.81 828.76,467.59 829.34,460.22C836.78,327.66 866.49,194.9 927.24,76.22C941.4,49.7 956.53,23.42 975.48,0ZM230.32,231.67C257.4,239.98 282.5,253.54 307.23,267.14C388.68,315.01 460.64,377.55 525.23,446.14C528.09,449.62 532.06,452.87 532.62,457.64C534.03,475.14 532.39,492.76 533.79,510.28C536.08,544.76 536.79,579.41 541.55,613.69C546.04,652.57 555.55,690.69 560.26,729.49C541.88,716.19 524.64,701.38 506.19,688.19C472.06,662.82 436.88,638.79 400.19,617.31C374.51,602.08 347.71,588.94 321.19,575.31C316.75,573.09 312.07,570.43 309.72,565.83C301.03,548.35 293.72,530.22 286.36,512.14C259.7,446.51 241.01,377.56 233.19,307.19C229.71,282.19 229.88,256.85 230.32,231.67ZM1684.11,243.03C1693.05,238.94 1701.68,233.93 1711.19,231.17C1714.02,326.32 1690.84,420.45 1655.04,508.07C1647.64,526.51 1639.72,544.74 1632.04,563.07C1629.6,571.33 1621.04,574.53 1614.21,578.27C1579.34,595.118 1545.5,614.025 1512.87,634.89C1466.87,663.44 1424.73,697.53 1380.98,729.28C1386.84,702.46 1390.82,675.28 1395.27,648.21C1405.32,587.44 1408.66,525.71 1408.27,464.21C1408.65,459.56 1408.27,454.21 1411.67,450.64C1421.46,439.16 1432.29,428.64 1442.96,417.97C1495.97,364.19 1554.36,315.19 1619.19,276.19C1639.96,263.51 1662.06,253.25 1684.11,243.03Z" style="fill:white;fill-rule:nonzero;"/>
        </g>
    </g>
</svg>
